<svg width="32" height="32" viewBox="0 0 32 32" fill="none" xmlns="http://www.w3.org/2000/svg">
<g clip-path="url(#clip0_2003_83)">
<path d="M21.0286 0H22.4V0.457143H22.8571V0.914286H24.6857V0.457143H25.1429V0.914286H29.2571V1.37143H29.7143V1.82857H30.1714V2.74286H30.6286V4.11429H31.0857V5.02857H31.5429V5.94286H32V21.0286H30.6286V21.4857H27.8857V22.8571H27.4286V23.7714H26.5143V24.6857H25.6V25.1429H26.0571V26.0571H24.6857V26.9714H24.2286V27.4286H22.8571V26.5143H21.9429V26.9714H22.4V27.8857H21.9429V28.3429H22.4V29.7143H21.9429V29.2571H21.4857V28.8H21.0286V28.3429H20.1143V29.2571H19.6571V28.8H19.2V29.2571H17.3714V28.8H16.4571V28.3429H15.0857V28.8H13.7143V29.2571H10.0571V29.7143H9.6V30.6286H9.14286V32H7.77143V31.0857H7.31429V29.7143H6.85714V29.2571H5.94286V29.7143H5.48571V30.1714H5.94286V31.5429H5.02857V32H3.2V31.5429H1.82857V31.0857H0.914286V30.6286H0.457143V30.1714H0V27.4286H0.457143V26.9714H0.914286V26.5143H1.82857V26.9714H3.2V26.5143H3.65714V26.0571H4.11429V25.1429H4.57143V23.7714H3.2V24.2286H2.74286V23.3143H3.2V22.4H2.74286V21.9429H5.02857V21.4857H4.57143V21.0286H3.65714V20.1143H3.2V17.3714H3.65714V16H4.11429V15.5429H4.57143V15.0857H5.02857V14.1714H5.94286V12.3429H5.48571V11.4286H5.02857V10.5143H5.48571V9.6H3.65714V9.14286H4.11429V8.68571H3.65714V7.31429H4.11429V6.4H4.57143V5.94286H5.48571V5.48571H6.85714V4.57143H7.31429V3.2H7.77143V2.74286H8.22857V2.28571H8.68571V1.82857H10.9714V2.28571H11.4286V1.82857H12.8V2.28571H13.2571V1.82857H15.0857V1.37143H16V1.82857H16.9143V2.28571H18.2857V1.82857H18.7429V1.37143H18.2857V0.914286H19.6571V1.37143H20.1143V0.914286H20.5714V0.457143H21.0286V0ZM19.2 1.37143V1.82857H19.6571V1.37143H19.2ZM16.9143 3.2V3.65714H16.4571V4.11429H16.9143V4.57143H17.3714V3.2H16.9143ZM18.7429 27.4286V27.8857H19.2V27.4286H18.7429ZM19.6571 27.4286V27.8857H20.1143V27.4286H19.6571ZM1.37143 21.9429H2.28571V22.4H1.37143V21.9429ZM2.28571 22.4H2.74286V22.8571H2.28571V22.4Z" fill="#010101"/>
<path d="M21.0286 1.82858H21.4857V3.65715H20.5714V5.48572H21.0286V6.4H21.4857V6.85715H22.4V7.77143H24.2286V7.31429H24.6857V6.85715H25.1429V6.4H24.6857V5.94286H26.5143V5.02858H26.9714V4.11429H27.4286V2.28572H28.3429V2.74286H28.8V3.2H29.2571V4.11429H29.7143V5.02858H30.1714V5.94286H30.6286V6.85715H31.0857V12.3429H30.1714V11.8857H28.8V12.3429H29.2571V13.2571H29.7143V14.1714H30.1714V14.6286H29.2571V16H28.8V16.4571H28.3429V16.9143H27.8857V17.3714H27.4286V17.8286H26.5143V16.9143H26.0571V16.4571H25.6V15.5429H24.2286V15.0857H23.7714V17.3714H24.2286V19.6571H23.7714V20.1143H22.8571V20.5714H20.5714V20.1143H17.3714V19.6571H17.8286V19.2H18.2857V17.8286H18.7429V17.3714H19.2V15.5429H19.6571V14.6286H20.1143V13.7143H19.6571V13.2571H18.7429V12.3429H16.9143V12.8H16.4571V14.1714H16V15.0857H16.4571V14.6286H16.9143V13.7143H17.3714V15.5429H16.4571V17.3714H16V16.9143H15.5429V16H15.0857V18.2857H14.6286V17.3714H14.1714V18.7429H13.7143V19.6571H13.2571V20.5714H12.8V21.9429H13.2571V22.8571H10.9714V23.3143H10.5143V23.7714H11.4286V24.2286H13.7143V23.7714H14.1714V24.6857H10.5143V24.2286H9.14286V24.6857H8.68571V29.2571H8.22857V28.3429H6.85714V27.8857H5.48571V28.3429H5.02857V29.2571H4.57143V30.6286H3.2V30.1714H2.74286V29.7143H1.37143V28.3429H1.82857V27.8857H3.2V27.4286H3.65714V26.9714H4.57143V26.5143H5.48571V26.0571H5.94286V25.6H6.4V24.6857H6.85714V24.2286H7.31429V23.7714H7.77143V24.6857H8.22857V22.4H8.68571V21.9429H9.14286V20.5714H8.68571V19.6571H8.22857V18.7429H9.14286V19.2H10.9714V18.7429H11.4286V18.2857H11.8857V16.9143H12.8V14.6286H13.7143V12.3429H16V11.8857H15.5429V11.4286H15.0857V10.9714H15.5429V10.0571H14.6286V9.6H14.1714V9.14286H13.7143V8.68572H11.4286V9.14286H10.9714V9.6H10.5143V10.5143H10.0571V7.77143H10.9714V7.31429H10.0571V6.4H10.5143V5.48572H12.3429V4.11429H12.8V3.65715H13.2571V3.2H15.0857V3.65715H14.6286V5.48572H15.0857V5.94286H16.4571V5.48572H17.8286V5.94286H18.7429V5.48572H19.2V5.02858H19.6571V2.74286H20.5714V2.28572H21.0286V1.82858Z" fill="#090808"/>
<path d="M27.4286 2.28571H28.3429V2.74286H28.8V3.2H29.2571V4.11428H29.7143V5.02857H30.1714V5.94286H30.6286V6.85714H31.0857V12.3429H30.1714V11.8857H28.8V12.3429H29.2571V13.2571H29.7143V14.1714H30.1714V14.6286H29.2571V16H28.8V16.4571H28.3429V16.9143H27.8857V17.3714H27.4286V17.8286H26.5143V16.9143H26.0571V16.4571H25.6V15.5429H24.2286V15.0857H23.7714V17.3714H24.2286V19.6571H23.7714V20.1143H22.8571V20.5714H20.5714V20.1143H17.3714V19.6571H17.8286V19.2H18.2857V17.8286H18.7429V17.3714H19.2V15.5429H19.6571V14.6286H20.1143V13.7143H19.6571V13.2571H19.2V11.8857H19.6571V11.4286H20.1143V10.9714H20.5714V10.0571H21.0286V9.14286H21.4857V7.77143H24.2286V7.31428H24.6857V6.85714H25.1429V6.4H24.6857V5.94286H26.5143V5.02857H26.9714V4.11428H27.4286V2.28571Z" fill="#302A29"/>
<path d="M16.9143 12.3429H18.7429V13.2571H19.6571V13.7143H20.1143V14.6286H19.6571V15.5429H19.2V17.3714H18.7429V17.8286H18.2857V19.2H17.8286V19.6571H17.3714V20.1143H20.5714V20.5714H22.8571V20.1143H23.7714V19.6571H24.2286V18.7429H24.6857V20.1143H24.2286V20.5714H23.3143V21.0286H18.7429V21.4857H18.2857V22.4H17.8286V22.8571H16.9143V23.3143H16.4571V23.7714H15.5429V24.2286H14.6286V26.0571H14.1714V23.7714H13.7143V24.2286H11.4286V23.7714H10.5143V23.3143H10.9714V22.8571H13.2571V21.9429H12.8V20.5714H13.2571V19.6571H13.7143V18.7429H14.1714V17.3714H14.6286V18.2857H15.0857V16H15.5429V16.9143H16V17.3714H16.4571V15.5429H17.3714V13.7143H16.9143V14.6286H16.4571V15.0857H16V14.1714H16.4571V12.8H16.9143V12.3429Z" fill="#060606"/>
<path d="M13.2571 16H14.1714V18.7429H13.7143V19.6571H13.2571V20.5714H12.8V21.9429H13.2571V22.8571H10.9714V23.3143H10.5143V23.7714H11.4286V24.2286H13.7143V23.7714H14.1714V24.6857H10.5143V24.2286H9.14286V24.6857H8.68572V29.2571H8.22857V28.3429H6.85714V27.8857H5.48572V28.3429H5.02857V29.2571H4.57143V30.6286H3.2V30.1714H2.74286V29.7143H1.37143V28.3429H1.82857V27.8857H3.2V27.4286H3.65714V26.9714H4.57143V26.5143H5.48572V26.0571H5.94286V25.6H6.4V24.6857H6.85714V24.2286H7.31429V23.7714H7.77143V24.6857H8.22857V22.4H8.68572V21.9429H9.14286V20.5714H8.68572V19.6571H8.22857V18.7429H9.14286V19.2H10.9714V18.7429H12.3429V17.3714H13.2571V16Z" fill="#0A0909"/>
<path d="M27.4286 2.28571H28.3429V2.74286H28.8V3.2H29.2571V4.11428H29.7143V5.02857H30.1714V5.94286H30.6286V6.85714H31.0857V12.3429H30.1714V11.8857H29.7143V7.31428H29.2571V6.4H28.8V8.22857H28.3429V8.68571H28.8V9.6H28.3429V10.0571H27.4286V10.9714H26.9714V11.8857H27.4286V12.3429H26.9714V13.2571H27.4286V13.7143H25.1429V14.1714H24.2286V13.7143H24.6857V13.2571H25.1429V12.3429H25.6V11.4286H26.0571V8.22857H25.6V6.4H26.0571V5.94286H26.5143V5.02857H26.9714V4.11428H27.4286V2.28571Z" fill="#514B4A"/>
<path d="M28.8 6.4H29.2571V7.31429H29.7143V11.8857H28.8V12.3429H29.2571V13.2571H29.7143V14.1714H30.1714V14.6286H29.2571V16H28.8V16.4571H28.3429V16.9143H27.8857V17.3714H27.4286V17.8286H26.5143V16.9143H26.0571V16.4571H25.6V15.5429H24.6857V14.6286H24.2286V14.1714H25.1429V13.7143H27.4286V13.2571H26.9714V12.3429H27.4286V11.8857H26.9714V10.9714H27.4286V10.0571H28.3429V9.6H28.8V8.68572H28.3429V8.22857H28.8V6.4Z" fill="#403D3C"/>
<path d="M13.2571 3.2H15.0857V3.65714H14.6286V5.48571H15.0857V5.94285H15.5429V6.4H16V7.31428H15.5429V8.22857H15.0857V9.14285H13.7143V8.68571H11.4286V9.14285H10.9714V9.6H10.5143V10.5143H10.0571V7.77143H10.9714V7.31428H10.0571V6.4H10.5143V5.48571H12.3429V4.11428H12.8V3.65714H13.2571V3.2Z" fill="#383334"/>
<path d="M21.0286 0H21.9429V4.11429H21.0286V4.57143H20.5714V3.65714H21.4857V1.82857H21.0286V2.28571H20.5714V2.74286H19.6571V5.02857H19.2V5.48571H18.7429V5.94286H17.8286V5.48571H16.4571V5.94286H15.0857V5.48571H14.6286V3.65714H15.0857V3.2H14.1714V2.74286H14.6286V2.28571H16.4571V1.82857H16.9143V2.28571H18.2857V1.82857H18.7429V1.37143H18.2857V0.914286H19.6571V1.37143H20.1143V0.914286H20.5714V0.457143H21.0286V0ZM19.2 1.37143V1.82857H19.6571V1.37143H19.2ZM16.9143 3.2V3.65714H16.4571V4.11429H16.9143V4.57143H17.3714V3.2H16.9143Z" fill="#050404"/>
<path d="M21.0286 15.0857H22.4V18.7429H23.3143V18.2857H22.8571V17.3714H23.3143V17.8286H23.7714V18.2857H24.2286V19.6571H23.7714V20.1143H22.8571V20.5714H20.5714V20.1143H17.3714V19.6571H17.8286V19.2H18.2857V17.8286H18.7429V17.3714H19.2V15.5429H21.0286V15.0857Z" fill="#676264"/>
<path d="M24.2286 7.31429H25.1429V8.68571H24.6857V9.14286H23.3143V8.68571H22.8571V9.14286H22.4V9.6H21.4857V10.0571H22.4V11.8857H23.3143V10.9714H22.8571V9.6H23.3143V10.0571H24.6857V10.9714H25.1429V12.3429H24.6857V12.8H23.7714V13.2571H22.8571V12.8H21.0286V13.7143H21.4857V13.2571H21.9429V14.6286H20.5714V14.1714H20.1143V13.7143H19.6571V13.2571H19.2V11.8857H19.6571V11.4286H20.1143V10.9714H20.5714V10.0571H21.0286V9.14286H21.4857V7.77143H24.2286V7.31429Z" fill="#494344"/>
<path d="M0.457143 27.4286H1.82857V28.3429H1.37143V29.7143H2.74286V30.1714H3.2V30.6286H4.57143V29.2571H5.02857V28.3429H5.48571V27.8857H6.85714V28.3429H8.22857V29.2571H8.68571V31.5429H8.22857V30.1714H7.31429V29.7143H6.85714V29.2571H5.94286V29.7143H5.48571V30.1714H5.94286V31.5429H5.02857V32H3.2V31.5429H1.82857V31.0857H0.914286V30.6286H0.457143V30.1714H0V27.8857H0.457143V27.4286Z" fill="#020202"/>
<path d="M13.2571 16H14.1714V18.7429H13.7143V19.6571H13.2571V20.5714H12.8V22.4H12.3429V21.9429H11.8857V21.4857H10.0571V22.4H9.60001V19.6571H10.9714V18.7429H12.3429V17.3714H13.2571V16Z" fill="#252221"/>
<path d="M6.4 25.1429H7.31429V26.5143H6.85714V26.9714H5.94286V27.4286H5.48572V28.3429H5.02857V29.2571H4.57143V30.6286H3.2V30.1714H2.74286V29.7143H1.37143V28.3429H1.82857V27.8857H3.2V27.4286H3.65714V26.9714H4.57143V26.5143H5.48572V26.0571H5.94286V25.6H6.4V25.1429Z" fill="#302D2C"/>
<path d="M25.6 6.4H26.5143V7.31429H26.9714V9.6H27.4286V8.68572H27.8857V8.22857H27.4286V7.77143H28.8V8.22857H28.3429V8.68572H28.8V9.6H28.3429V10.0571H27.4286V10.9714H26.9714V11.8857H27.4286V12.3429H26.9714V13.2571H27.4286V13.7143H25.1429V14.1714H24.2286V13.7143H24.6857V13.2571H25.1429V12.3429H25.6V11.4286H26.0571V8.22857H25.6V6.4Z" fill="#857C79"/>
<path d="M21.0286 1.82858H21.4857V3.65715H20.5714V5.48572H21.0286V6.4H21.4857V6.85715H21.0286V7.31429H20.1143V8.22858H19.2V8.68572H17.3714V8.22858H16.9143V7.77143H17.3714V7.31429H18.2857V6.85715H17.8286V6.4H18.7429V5.48572H19.2V5.02858H19.6571V2.74286H20.5714V2.28572H21.0286V1.82858ZM16.9143 6.85715H17.3714V7.31429H16.9143V6.85715Z" fill="#1B1817"/>
<path d="M21.0286 12.8H22.8571V13.2571H23.3143V13.7143H23.7714V14.6286H24.6857V15.5429H24.2286V15.0857H23.7714V17.3714H24.2286V18.2857H23.7714V17.8286H23.3143V17.3714H22.8571V18.2857H23.3143V18.7429H22.4V15.0857H21.0286V15.5429H19.6571V14.6286H20.1143V14.1714H20.5714V14.6286H21.9428V13.2571H21.4857V13.7143H21.0286V12.8Z" fill="#211E1E"/>
<path d="M8.22858 22.8571H9.14286V23.3143H9.6V24.2286H9.14286V24.6857H8.68572V29.2571H8.22858V28.3429H6.85715V27.8857H5.48572V27.4286H5.94286V26.9714H6.85715V26.5143H7.31429V25.1429H6.4V24.6857H6.85715V24.2286H7.31429V23.7714H7.77143V24.6857H8.22858V22.8571Z" fill="#191616"/>
<path d="M13.7143 13.7143H14.1714V15.5429H14.6286V15.0857H15.0857V14.6286H16V15.0857H16.4571V14.6286H16.9143V13.7143H17.3714V15.5429H16.4571V17.3714H16V16.9143H15.5429V16H15.0857V18.2857H14.6286V17.3714H14.1714V16H13.2571V17.3714H12.3429V18.7429H11.4286V18.2857H11.8857V16.9143H12.8V14.6286H13.7143V13.7143Z" fill="#151212"/>
<path d="M19.2 15.5429H19.6571V16.4571H21.9429V16.9143H20.5714V17.3714H21.0286V17.8286H20.1143V17.3714H19.6571V17.8286H19.2V18.2857H20.1143V18.7429H21.9429V19.2H20.1143V19.6571H21.0286V20.1143H22.8571V20.5714H20.5714V20.1143H17.3714V19.6571H17.8286V19.2H18.2857V17.8286H18.7429V17.3714H19.2V15.5429Z" fill="#484343"/>
<path d="M26.9714 12.3429H27.8857V12.8H28.3429V14.6286H27.8857V15.0857H27.4286V16H26.9714V16.4571H25.6V15.5429H24.6857V14.6286H24.2286V14.1714H25.1429V13.7143H27.4286V13.2571H26.9714V12.3429Z" fill="#605A5A"/>
<path d="M14.1714 17.3714H14.6286V18.7429H14.1714V17.3714ZM13.7143 18.7429H14.1714V23.7714H13.7143V24.2286H11.4286V23.7714H10.5143V23.3143H10.9714V22.8571H13.2571V21.9429H12.8V20.5714H13.2571V19.6571H13.7143V18.7429Z" fill="#020202"/>
<path d="M29.7143 5.02857H30.1714V5.94286H30.6286V6.85714H31.0857V12.3429H30.1714V11.8857H29.7143V5.02857Z" fill="#534E4E"/>
<path d="M0.457143 27.4286H1.82857V28.3429H1.37143V29.7143H2.74286V30.1714H3.2V30.6286H4.57143V30.1714H5.02857V30.6286H5.48571V31.0857H2.28571V30.6286H1.82857V31.0857H0.914286V30.6286H0.457143V30.1714H0V27.8857H0.457143V27.4286Z" fill="#131212"/>
<path d="M16 11.4286H16.4571V11.8857H18.2857V12.3429H16.9143V12.8H16.4571V14.1714H16V14.6286H15.0857V15.0857H14.6286V15.5429H14.1714V13.7143H13.7143V12.3429H16V11.4286Z" fill="#151313"/>
<path d="M13.2571 3.2H15.0857V3.65714H14.6286V5.02857H13.2571V5.48571H12.8V5.94285H12.3429V8.22857H11.4286V6.4H11.8857V5.94285H10.5143V5.48571H12.3429V4.11428H12.8V3.65714H13.2571V3.2Z" fill="#6D6463"/>
<path d="M9.60001 6.4H10.0571V7.31429H10.9714V7.77143H10.0571V10.5143H10.5143V9.6H10.9714V9.14286H11.4286V8.68572H13.7143V9.14286H12.8V9.6H12.3429V10.0571H11.8857V10.5143H11.4286V10.9714H10.9714V11.4286H10.0571V10.9714H9.60001V6.4Z" fill="#131112"/>
<path d="M16.4571 5.48572H17.8286V5.94286H18.7429V6.4H17.8286V6.85715H18.2857V7.31429H17.3714V7.77143H16.9143V8.22857H17.3714V8.68572H19.2V9.14286H16.9143V8.68572H16V8.22857H15.5429V7.31429H16V6.4H15.5429V5.94286H16.4571V5.48572ZM16.9143 6.85715V7.31429H17.3714V6.85715H16.9143Z" fill="#131111"/>
<path d="M15.0857 8.22857H15.5429V9.14285H16V9.6H17.8286V10.0571H17.3714V10.5143H18.2857V10.0571H19.2V9.6H19.6571V9.14285H20.1143V10.0571H19.6571V10.5143H19.2V10.9714H18.2857V11.4286H16.9143V10.5143H15.5429V10.0571H14.6286V9.6H14.1714V9.14285H15.0857V8.22857Z" fill="#292525"/>
<path d="M10.9714 19.2H11.8857V20.1143H12.3429V21.4857H12.8V22.4H12.3429V21.9429H11.8857V21.4857H10.0571V22.4H9.60001V19.6571H10.9714V19.2Z" fill="#5C5653"/>
<path d="M13.7143 5.48572H15.0857V5.94286H15.5429V6.4H16V7.31429H15.5429V8.22857H15.0857V9.14286H14.6286V8.68572H14.1714V7.31429H13.7143V6.85715H12.8V6.4H14.1714V5.94286H13.7143V5.48572Z" fill="#453E3E"/>
<path d="M27.4286 3.2H27.8857V4.57143H27.4286V5.48571H26.9714V6.4H27.8857V6.85714H28.3429V7.31428H28.8V7.77143H27.4286V8.22857H27.8857V8.68571H27.4286V9.6H26.9714V7.31428H26.5143V6.4H26.0571V5.94285H26.5143V5.02857H26.9714V4.11428H27.4286V3.2Z" fill="#675F5F"/>
<path d="M27.8857 14.6286H29.2571V16H28.8V16.4571H28.3429V16.9143H27.8857V17.3714H27.4286V17.8286H26.5143V16.9143H26.0571V16.4571H26.9714V16H27.4286V15.0857H27.8857V14.6286Z" fill="#484343"/>
<path d="M19.6571 11.4286H20.1143V11.8857H20.5714V12.3429H21.4857V12.8H21.0286V13.7143H21.4857V13.2571H21.9429V14.6286H20.5714V14.1714H20.1143V13.7143H19.6571V13.2571H19.2V11.8857H19.6571V11.4286Z" fill="#403C40"/>
<path d="M10.5143 5.94286H11.8857V6.4H11.4286V8.22857H11.8857V8.68571H11.4286V9.14286H10.9714V9.6H10.5143V10.5143H10.0571V7.77143H10.9714V7.31428H10.0571V6.4H10.5143V5.94286Z" fill="#5C5455"/>
<path d="M24.2286 7.31429H25.1429V8.68571H24.6857V9.14286H23.3143V8.68571H22.8571V9.14286H22.4V9.6H21.9429V8.68571H21.4857V7.77143H24.2286V7.31429Z" fill="#59504E"/>
<path d="M28.8 7.77143H29.2571V11.4286H27.8857V11.8857H26.9714V10.9714H27.4286V10.0571H28.3429V9.6H28.8V8.68572H28.3429V8.22857H28.8V7.77143Z" fill="#585354"/>
<path d="M25.6 6.4H26.5143V7.31429H26.9714V10.5143H26.5143V11.4286H26.0571V8.22857H25.6V6.4Z" fill="#A79C98"/>
<path d="M21.0286 15.0857H22.4V17.3714H21.4857V17.8286H21.0286V17.3714H20.5714V16.9143H21.9428V16.4571H19.6571V15.5429H21.0286V15.0857Z" fill="#7A716F"/>
<path d="M22.8571 9.6H23.3143V10.0571H24.6857V10.9714H25.1429V12.3429H24.6857V12.8H24.2286V12.3429H23.7714V11.8857H23.3143V10.9714H22.8571V9.6Z" fill="#463F40"/>
<path d="M23.7714 15.0857H24.2286V15.5429H25.1429V16.9143H25.6V17.3714H25.1429V18.2857H24.2286V17.3714H23.7714V15.0857ZM25.6 17.3714H26.0571V17.8286H25.6V17.3714Z" fill="#020202"/>
<path d="M1.37143 28.3429H2.28572V28.8H3.2V29.2572H4.11429V30.1714H4.57143V30.6286H3.2V30.1714H2.74286V29.7143H1.37143V28.3429Z" fill="#7F7975"/>
<path d="M10.0571 21.4857H11.8857V21.9429H12.3429V22.4H12.8V21.9429H13.2571V22.8571H9.60001V22.4H10.0571V21.4857Z" fill="#2C2928"/>
<path d="M15.0857 12.8H16.4571V14.1714H16V14.6286H15.0857V15.0857H14.6286V15.5429H14.1714V14.1714H14.6286V13.2571H15.0857V12.8Z" fill="#373332"/>
<path d="M16.9143 12.3429H18.7429V13.2571H17.8286V14.6286H17.3714V13.7143H16.9143V14.6286H16.4571V15.0857H16V14.1714H16.4571V12.8H16.9143V12.3429Z" fill="#050404"/>
<path d="M27.4286 7.77143H28.8V8.22857H28.3429V8.68572H28.8V9.6H28.3429V10.0571H27.4286V10.9714H26.9714V11.8857H26.5143V10.5143H26.9714V9.6H27.4286V8.68572H27.8857V8.22857H27.4286V7.77143Z" fill="#777071"/>
<path d="M21.0286 6.85714H22.4V7.77143H21.4857V9.14285H21.0286V8.68571H20.5714V9.14285H20.1143V8.68571H19.2V8.22857H20.1143V7.31428H21.0286V6.85714Z" fill="#1B1818"/>
<path d="M27.4286 2.28571H28.3429V2.74286H28.8V3.2H29.2571V3.65714H28.8V4.11428H28.3429V5.48571H27.8857V5.94286H26.9714V5.48571H27.4286V4.57143H27.8857V3.2H27.4286V2.28571Z" fill="#433E3C"/>
<path d="M8.22858 18.7429H9.14286V19.2H10.9714V19.6571H9.60001V22.4H9.14286V20.5714H8.68572V19.6571H8.22858V18.7429Z" fill="#1D1A1A"/>
<path d="M24.6857 10.5143H26.0571V11.4286H25.6V12.3429H25.1429V10.9714H24.6857V10.5143ZM24.6857 12.3429H25.1429V13.2571H24.6857V13.7143H24.2286V14.6286H23.7714V13.7143H23.3143V13.2571H23.7714V12.8H24.6857V12.3429Z" fill="#2A2422"/>
<path d="M19.2 5.02857H20.1143V6.85714H19.6571V7.31429H18.2857V6.85714H17.8286V6.4H18.7429V5.48571H19.2V5.02857Z" fill="#3D3A39"/>
<path d="M10.9714 22.8571H12.8V23.3143H13.2571V24.2286H11.4286V23.7714H10.5143V23.3143H10.9714V22.8571Z" fill="black"/>
<path d="M9.60001 19.6571H10.9714V21.4857H10.0571V22.4H9.60001V19.6571Z" fill="#625E5B"/>
<path d="M25.1429 13.7143H26.0571V16.4571H25.6V15.5429H24.6857V14.6286H24.2286V14.1714H25.1429V13.7143Z" fill="#504845"/>
<path d="M4.57144 26.9714H5.94286V27.4286H5.48572V28.3429H5.02858V28.8H3.65715V27.8857H4.11429V27.4286H4.57144V26.9714Z" fill="#887F7A"/>
<path d="M21.4857 8.68571H21.9429V9.6H21.4857V10.0571H22.4V10.9714H21.9429V11.4286H21.4857V10.9714H20.5714V10.0571H21.0286V9.14286H21.4857V8.68571Z" fill="#524947"/>
<path d="M20.5714 8.68571H21.0286V10.0571H20.5714V10.9714H20.1143V11.4286H18.7429V10.9714H19.2V10.5143H19.6571V10.0571H20.1143V9.14286H20.5714V8.68571Z" fill="#080707"/>
<path d="M27.4286 14.1714H27.8857V15.0857H27.4286V16H26.9714V16.4571H26.0571V14.6286H26.5143V15.0857H26.9714V14.6286H27.4286V14.1714Z" fill="#706A6D"/>
<path d="M19.6571 11.4286H20.1143V11.8857H20.5714V13.7143H19.6571V13.2571H19.2V11.8857H19.6571V11.4286Z" fill="#3A3536"/>
<path d="M12.3429 17.8286H12.8V18.2857H13.2571V19.2H12.8V19.6571H12.3429V20.1143H11.8857V19.2H10.9714V18.7429H12.3429V17.8286Z" fill="#2F2B2A"/>
<path d="M21.9429 11.8857H23.7714V12.3429H24.2286V12.8H23.7714V13.2571H22.8571V12.8H21.9429V11.8857Z" fill="#4D494D"/>
<path d="M25.6 6.4H26.5143V7.31429H26.9714V8.68572H26.5143V8.22857H25.6V6.4Z" fill="#908784"/>
<path d="M13.7143 5.48572H14.6286V6.4H15.0857V7.31429H13.7143V6.85715H12.8V6.4H14.1714V5.94286H13.7143V5.48572Z" fill="#524A4A"/>
<path d="M21.0286 1.82858H21.4857V3.65715H20.5714V4.57143H20.1143V2.74286H20.5714V2.28572H21.0286V1.82858Z" fill="#746D68"/>
<path d="M5.94286 26.9714H7.31429V27.4286H7.77143V28.3429H6.85715V27.8857H5.48572V27.4286H5.94286V26.9714Z" fill="#161414"/>
<path d="M6.4 25.1429H7.31428V26.5143H6.85714V26.9714H5.94286V25.6H6.4V25.1429Z" fill="#7B746F"/>
<path d="M8.22858 22.8571H9.14286V23.3143H9.60001V24.2286H9.14286V24.6857H8.22858V22.8571Z" fill="#2A2727"/>
<path d="M27.8857 11.4286H29.2571V11.8857H28.8V12.3429H29.2571V13.2571H28.8V12.8H27.8857V12.3429H27.4286V11.8857H27.8857V11.4286Z" fill="#423E3E"/>
<path d="M10.5143 5.94286H11.8857V6.4H11.4286V7.77143H10.9714V7.31428H10.0571V6.4H10.5143V5.94286Z" fill="#413A38"/>
<path d="M18.2857 18.7429H19.6571V19.2H19.2V19.6571H18.7429V20.1143H17.3714V19.6571H17.8286V19.2H18.2857V18.7429Z" fill="#817D7F"/>
<path d="M27.4286 10.0571H28.3429V11.4286H27.8857V11.8857H26.9714V10.9714H27.4286V10.0571Z" fill="#554F50"/>
<path d="M14.6286 2.28571H16V3.65714H15.0857V3.2H14.1714V2.74286H14.6286V2.28571Z" fill="#1B191A"/>
<path d="M20.1143 14.1714H20.5714V14.6286H21.4857V15.0857H21.0286V15.5429H19.6571V14.6286H20.1143V14.1714Z" fill="#292422"/>
<path d="M23.3143 31.5429H25.6V32H23.3143V31.5429Z" fill="black"/>
<path d="M2.74286 5.94286H3.65714V6.4H2.74286V5.94286Z" fill="black"/>
<path d="M23.3143 29.2571H23.7714V29.7143H23.3143V29.2571Z" fill="black"/>
<path d="M22.8571 27.8857H23.3143V28.3429H22.8571V27.8857Z" fill="black"/>
<path d="M3.2 24.6857H3.65714V25.1429H3.2V24.6857Z" fill="black"/>
<path d="M15.0857 0H15.5429V0.457143H15.0857V0Z" fill="black"/>
</g>
<defs>
<clipPath id="clip0_2003_83">
<rect width="32" height="32" fill="white"/>
</clipPath>
</defs>
</svg>
